<mxfile host="app.diagrams.net" modified="2023-05-22T17:14:43.096Z" agent="Mozilla/5.0 (Windows NT 10.0; Win64; x64) AppleWebKit/537.36 (KHTML, like Gecko) Chrome/112.0.0.0 Safari/537.36 OPR/98.0.0.0" etag="32jo-JU9w4ljH4DQPvDF" version="21.3.2" type="github">
  <diagram name="Página-1" id="Nm0uC9RnBJCZ1rB6JZC-">
    <mxGraphModel dx="839" dy="492" grid="1" gridSize="10" guides="1" tooltips="1" connect="1" arrows="1" fold="1" page="1" pageScale="1" pageWidth="827" pageHeight="1169" math="0" shadow="0">
      <root>
        <mxCell id="0" />
        <mxCell id="1" parent="0" />
        <mxCell id="eljkDkrcAiI4HZhlrct5-1" value="&lt;font style=&quot;font-size: 20px;&quot;&gt;&lt;b style=&quot;font-size: 20px;&quot;&gt;&lt;span style=&quot;font-size: 20px;&quot;&gt;Administración de memoria&lt;/span&gt;&lt;/b&gt;&lt;/font&gt;" style="text;html=1;strokeColor=#6F0000;fillColor=#a20025;align=center;verticalAlign=middle;whiteSpace=wrap;rounded=0;fontColor=#ffffff;fontSize=20;" parent="1" vertex="1">
          <mxGeometry x="220" y="40" width="371" height="50" as="geometry" />
        </mxCell>
        <mxCell id="eljkDkrcAiI4HZhlrct5-4" style="edgeStyle=orthogonalEdgeStyle;rounded=0;orthogonalLoop=1;jettySize=auto;html=1;exitX=1;exitY=0.5;exitDx=0;exitDy=0;" parent="1" source="eljkDkrcAiI4HZhlrct5-2" target="eljkDkrcAiI4HZhlrct5-3" edge="1">
          <mxGeometry relative="1" as="geometry" />
        </mxCell>
        <mxCell id="eljkDkrcAiI4HZhlrct5-2" value="Memoria virtual" style="rounded=0;whiteSpace=wrap;html=1;fillColor=#fad7ac;strokeColor=#b46504;" parent="1" vertex="1">
          <mxGeometry x="40" y="120" width="120" height="40" as="geometry" />
        </mxCell>
        <mxCell id="m4izKbtvh7duc2V27hQV-3" style="edgeStyle=orthogonalEdgeStyle;rounded=0;orthogonalLoop=1;jettySize=auto;html=1;exitX=0.5;exitY=1;exitDx=0;exitDy=0;" edge="1" parent="1" source="eljkDkrcAiI4HZhlrct5-3" target="m4izKbtvh7duc2V27hQV-2">
          <mxGeometry relative="1" as="geometry" />
        </mxCell>
        <mxCell id="eljkDkrcAiI4HZhlrct5-3" value="Cada programa tiene su propio espacio de direcciones, el cual se divide en trozos llamados &lt;b&gt;&lt;span style=&quot;background-color: rgb(255, 255, 0);&quot;&gt;páginas&lt;/span&gt;.&lt;/b&gt;&amp;nbsp;" style="rounded=0;whiteSpace=wrap;html=1;" parent="1" vertex="1">
          <mxGeometry x="210" y="115" width="250" height="50" as="geometry" />
        </mxCell>
        <mxCell id="m4izKbtvh7duc2V27hQV-1" value="Cuando el programa hace referencia a una parte de su espacio de direcciones que &lt;span class=&quot;fontstyle2&quot;&gt;no &lt;/span&gt;&lt;span class=&quot;fontstyle0&quot;&gt;está en la memoria física, el sistema operativo&lt;br&gt;recibe una alerta para buscar la parte faltante y volver a ejecutar la instrucción que falló&lt;/span&gt; &lt;br/&gt;" style="rounded=0;whiteSpace=wrap;html=1;" vertex="1" parent="1">
          <mxGeometry x="510" y="257.5" width="310" height="100" as="geometry" />
        </mxCell>
        <mxCell id="m4izKbtvh7duc2V27hQV-5" style="edgeStyle=orthogonalEdgeStyle;rounded=0;orthogonalLoop=1;jettySize=auto;html=1;exitX=0.5;exitY=1;exitDx=0;exitDy=0;" edge="1" parent="1" source="m4izKbtvh7duc2V27hQV-2" target="m4izKbtvh7duc2V27hQV-4">
          <mxGeometry relative="1" as="geometry" />
        </mxCell>
        <mxCell id="m4izKbtvh7duc2V27hQV-2" value="Cada página es un rango contiguo de direcciones &lt;br/&gt;" style="rounded=0;whiteSpace=wrap;html=1;" vertex="1" parent="1">
          <mxGeometry x="245" y="190" width="180" height="50" as="geometry" />
        </mxCell>
        <mxCell id="m4izKbtvh7duc2V27hQV-6" style="edgeStyle=orthogonalEdgeStyle;rounded=0;orthogonalLoop=1;jettySize=auto;html=1;exitX=1;exitY=0.5;exitDx=0;exitDy=0;entryX=0;entryY=0.5;entryDx=0;entryDy=0;" edge="1" parent="1" source="m4izKbtvh7duc2V27hQV-4" target="m4izKbtvh7duc2V27hQV-1">
          <mxGeometry relative="1" as="geometry" />
        </mxCell>
        <mxCell id="m4izKbtvh7duc2V27hQV-4" value="Se asocian a la memoria física, pero no todas tienen que estar en la memoria física para poder ejecutar el&lt;br&gt;programa " style="rounded=0;whiteSpace=wrap;html=1;" vertex="1" parent="1">
          <mxGeometry x="227.5" y="270" width="215" height="75" as="geometry" />
        </mxCell>
      </root>
    </mxGraphModel>
  </diagram>
</mxfile>
